<?xml version="1.0" encoding="UTF-8" standalone="no"?>
<svg width="100" height="100" viewBox="0 0 142 100" version="1.1" xmlns="http://www.w3.org/2000/svg" xmlns:xlink="http://www.w3.org/1999/xlink" xmlns:sketch="http://www.bohemiancoding.com/sketch/ns">
    <g id="Third-pass---new-style" stroke="none" stroke-width="1" fill="none" fill-rule="evenodd" sketch:type="MSPage">
        <g id="PearsonLogo_Primary_W_RGB" sketch:type="MSLayerGroup">
            <path d="M56.5827015,95.0286982 C56.0846639,95.7183432 54.4592234,97.7763314 52.4371315,97.7763314 C49.7023716,97.7763314 49.128739,95.8606509 49.128739,94.254142 C49.128739,91.6121302 51.1555741,90.3899408 56.5827015,89.0523669 L56.5827015,95.0286982 L56.5827015,95.0286982 Z M63.3391148,98.2650888 C63.2599624,98.0600592 63.0465177,97.943787 62.8369269,97.9928994 L62.7705219,98.0097633 C62.1467891,98.1449704 61.667428,98.1068047 61.3312526,97.8804734 C60.8545595,97.5579882 60.6224384,96.8322485 60.6224384,95.6609467 L60.6224384,85.0686391 C60.6224384,80.9313609 58.1506305,78.8340237 53.274309,78.8340237 C48.9066973,78.8340237 45.4850605,80.8970414 45.4850605,83.5304734 C45.4850605,84.8849112 46.3115658,85.8633136 47.5329436,86.010355 C48.3306931,86.106213 49.0913862,85.745858 49.6442672,85.1639053 C50.7180125,84.0331361 50.5786806,82.6887574 49.2769645,81.2446746 C50.0468476,80.4402367 51.4105219,79.964497 52.9657035,79.964497 C55.500952,79.964497 56.5827015,81.4647929 56.5827015,84.9810651 L56.5827015,87.6579882 C55.9883173,87.8414201 55.4321754,88.0147929 54.4150522,88.2529586 C52.3624259,88.7340237 49.5470313,89.3739645 47.4232568,90.5449704 C45.6700459,91.5038462 44.7809896,93.0180473 44.7809896,95.045858 C44.7809896,97.2529586 46.2324134,99.8301775 50.3234363,99.8301775 C52.6141127,99.8301775 54.6670355,98.7452663 56.7736159,96.4195266 C56.9550438,98.8366864 57.8731524,99.7426036 60.0997954,99.7426036 C61.1705762,99.7426036 62.0273194,99.4934911 63.0456284,99.0014793 C63.3213278,98.8683432 63.452952,98.5488166 63.3391148,98.2650888 L63.3391148,98.2650888 Z" id="Fill-1" fill="#000000" sketch:type="MSShapeGroup"></path>
            <path d="M108.785933,79.8325444 C106.281516,79.8325444 103.407127,80.9076923 103.407127,89.2881657 C103.407127,95.6801775 105.296113,98.7869822 109.182288,98.7869822 C112.901562,98.7869822 114.560501,95.8573964 114.560501,89.2881657 C114.560501,82.9254438 112.671516,79.8325444 108.785933,79.8325444 L108.785933,79.8325444 Z M109.005307,99.9183432 C103.209691,99.9183432 98.8388184,95.3863905 98.8388184,89.3757396 C98.8388184,83.4902367 103.399716,78.7017751 109.005307,78.7017751 C114.682342,78.7017751 119.129106,83.3130178 119.129106,89.2 C119.129106,95.8204142 113.874514,99.9183432 109.005307,99.9183432 L109.005307,99.9183432 Z" id="Fill-2" fill="#000000" sketch:type="MSShapeGroup"></path>
            <path d="M8.78176618,95.6609467 L8.78176618,87.9985207 L11.7379749,87.9985207 C16.1488685,87.9985207 19.5043967,87.0668639 21.7117704,85.2286982 C24.019048,83.3076923 24.5031524,80.8739645 24.5031524,79.1704142 C24.5031524,72.1639053 17.7292484,70.6934911 12.0462839,70.6934911 L12.0691106,70.6928994 L0.54280167,70.6928994 C0.281924843,70.6928994 0.0696659708,70.9047337 0.0696659708,71.1650888 L0.0696659708,71.1964497 L0.0693695198,71.1863905 C0.0693695198,71.4272189 0.216112735,71.6411243 0.442601253,71.7242604 C1.46891441,72.1005917 4.25792484,71.5707101 4.25792484,74.5556213 L4.25822129,95.6571006 C4.25822129,97.1920118 3.57608768,98.2745562 0.458313152,98.5686391 C0.21136952,98.5920118 0.024308977,98.7943787 0.024308977,99.0384615 L0.024308977,99.1106509 C0.024308977,99.3710059 0.236864301,99.5828402 0.497741127,99.5828402 L12.8120167,99.5828402 C13.0728935,99.5828402 13.2851524,99.3710059 13.2851524,99.1106509 L13.2851524,99.0461538 C13.2851524,98.802071 13.0912735,98.595858 12.8443299,98.5763314 C9.45767432,98.3059172 8.77761587,97.2588757 8.77761587,95.6571006 L8.77761587,88.0118343 M19.4065678,79.0822485 C19.4065678,83.9573964 18.2023841,86.6431953 12.0462839,86.6431953 L8.78176618,86.6431953 L8.78176618,71.912426 L12.178501,71.912426 C18.547453,71.912426 19.4065678,75.5369822 19.4065678,79.0822485" id="Fill-3" fill="#000000" sketch:type="MSShapeGroup"></path>
            <path d="M28.6525762,86.658284 C29.1016994,82.2659763 30.8193361,79.858284 33.5167432,79.858284 C34.8667808,79.858284 35.8675992,80.2310651 36.5752276,80.9985207 C37.5475866,82.0526627 37.9581712,83.9568047 37.7966054,86.658284 L28.6525762,86.658284 L28.6525762,86.658284 Z M33.8241628,78.6914201 C28.463737,78.6914201 24.1029436,83.5352071 24.1029436,89.4893491 C24.1029436,95.516568 28.1912985,99.8911243 33.8241628,99.8911243 C38.557595,99.8911243 40.8604259,97.0689349 42.1808184,94.9461538 C42.3109603,94.7372781 42.2540418,94.4606509 42.0515658,94.3159763 L41.9890146,94.2715976 C41.7850564,94.1266272 41.5007599,94.1671598 41.3433445,94.3650888 C39.6025846,96.5428994 38.0797161,97.8032544 35.4490104,97.8032544 C32.1216451,97.8032544 28.5666054,95.5153846 28.5666054,89.0943787 L28.5666054,89.0470414 C28.5612693,88.7630178 28.5680877,88.3742604 28.578167,88.0118343 L42.1911942,88.0118343 C42.2288434,88.0118343 42.2590814,87.9828402 42.2620459,87.945858 L42.2697537,87.8366864 C42.4618539,85.2029586 41.7153904,82.8378698 40.1682129,81.1760355 C38.6539415,79.5505917 36.4599081,78.6914201 33.8241628,78.6914201 L33.8241628,78.6914201 Z" id="Fill-4" fill="#000000" sketch:type="MSShapeGroup"></path>
            <path d="M90.2485595,86.895858 C90.2470772,86.8955621 90.2458914,86.8955621 90.2444092,86.8949704 C86.5215783,85.8529586 85.0710438,84.797929 85.0710438,83.1331361 C85.0710438,81.235503 86.5799791,79.858284 88.659286,79.858284 C91.1053027,79.858284 92.1526639,81.0248521 94.7344551,85.3328402 L94.768547,85.3905325 C94.7812944,85.4121302 94.804714,85.4254438 94.8296159,85.4254438 L95.1835783,85.4254438 C95.4444551,85.4254438 95.656714,85.2136095 95.656714,84.9532544 L95.656714,78.762426 C95.656714,78.7233728 95.6249937,78.6914201 95.5858622,78.6914201 L95.1186555,78.6914201 C94.9763591,78.6914201 94.8429562,78.7547337 94.7531315,78.8642012 L93.9289979,79.8653846 C92.8884551,79.2926036 91.1945344,78.6914201 89.4943883,78.6914201 C85.2186764,78.6914201 82.2325261,81.3289941 82.2325261,85.1053254 C82.2325261,88.6494083 84.5872359,89.9775148 88.6530605,91.0736686 C92.6041587,92.1529586 94.0042965,93.2757396 94.0042965,95.3627219 C94.0042965,97.6813609 91.7521587,98.7242604 90.1531023,98.7242604 C87.17881,98.7242604 85.9209687,97.6210059 83.0702965,92.5094675 L83.0367975,92.4488166 C83.0243466,92.4260355 83.0006305,92.4118343 82.9748392,92.4118343 L82.6179123,92.4118343 C82.3573319,92.4118343 82.1447766,92.6236686 82.1447766,92.8840237 L82.1447766,99.8201183 C82.1447766,99.8594675 82.1767933,99.8911243 82.2159248,99.8911243 L82.6997328,99.8911243 C82.8242422,99.8911243 82.94638,99.8405325 83.0344259,99.7529586 L84.3376242,98.452071 C85.8631608,99.3967456 88.1440543,99.8911243 89.6257161,99.8911243 C91.8499875,99.8911243 93.6784969,99.1881657 94.9141044,97.8576923 C96.0154196,96.6721893 96.6225511,94.9923077 96.6225511,93.1269231 C96.6225511,89.8964497 94.8948351,88.2076923 90.2485595,86.895858" id="Fill-5" fill="#000000" sketch:type="MSShapeGroup"></path>
            <path d="M67.7209562,97.0928994 C67.7209562,98.1621302 67.4488142,98.512426 65.7436284,98.6195266 C65.4960919,98.6352071 65.30162,98.841716 65.30162,99.0899408 C65.30162,99.3497041 65.5135825,99.5612426 65.7738664,99.5612426 L74.1984092,99.5612426 C74.4548392,99.5612426 74.6632443,99.3529586 74.6632443,99.097929 C74.6632443,98.845858 74.4666973,98.6390533 74.2150104,98.6266272 C72.2652526,98.5331361 71.7606931,98.2180473 71.7606931,97.0923077 L71.7606931,84.7642012 C73.1468977,82.4630178 74.1441587,81.2585799 75.8262213,80.8943787 C75.7446973,81.1849112 75.6913361,81.5340237 75.6913361,81.816568 C75.6913361,83.3142012 76.7398831,84.3600592 78.2405177,84.3600592 C79.7144718,84.3600592 80.7443424,83.3142012 80.7443424,81.816568 C80.7443424,80.4 79.8582505,78.7455621 77.3594656,78.7455621 C75.3109896,78.7455621 73.353524,79.9174556 71.6729436,82.7215976 L71.6729436,79.5505917 C71.6729436,79.2272189 71.4058413,78.9674556 71.0821169,78.9760355 L65.7738664,79.1174556 C65.5168434,79.1248521 65.3155532,79.3310651 65.3155532,79.5872781 L65.3155532,79.6559172 C65.3155532,79.8884615 65.4851232,80.0878698 65.7092401,80.1189349 C67.4787557,80.3698225 67.7227349,81.2097633 67.7212526,82.0801775 L67.7209562,97.0928994" id="Fill-6" fill="#000000" sketch:type="MSShapeGroup"></path>
            <path d="M125.983942,78.9618343 C126.106672,78.9618343 126.222881,79.0088757 126.31152,79.0946746 C126.404013,79.183432 126.455002,79.3032544 126.455891,79.4313609 L126.475161,82.947929 C126.475161,82.947929 128.20347,78.8233728 133.815286,78.8233728 L133.864497,78.8233728 C137.362322,78.8233728 139.368405,81.0494083 139.368405,84.9298817 L139.368405,97.0721893 C139.368405,98.1423077 139.640843,98.4926036 141.345436,98.5994083 C141.593269,98.614497 141.787741,98.8210059 141.787741,99.0698225 C141.787741,99.3289941 141.575779,99.5405325 141.315495,99.5405325 L133.747399,99.5405325 C133.486522,99.5405325 133.273967,99.3286982 133.273967,99.0683432 C133.273967,98.8162722 133.463695,98.610355 133.705599,98.589645 C135.080539,98.4727811 135.300209,98.1257396 135.300209,97.0721893 L135.300209,86.1136095 C135.300209,82.4955621 134.269449,81.0860947 131.623921,81.0860947 C129.836322,81.0860947 128.37215,82.643787 127.458785,83.9502959 C127.458785,83.9502959 126.992468,84.5343195 126.486426,85.6325444 L126.542455,97.0715976 C126.542455,98.1233728 126.756196,98.4698225 128.092004,98.5884615 C128.333019,98.6094675 128.522154,98.8153846 128.522154,99.0573964 C128.522154,99.3286982 128.309896,99.5405325 128.049612,99.5405325 L120.528058,99.5405325 C120.267478,99.5405325 120.055812,99.3289941 120.055812,99.0692308 C120.055812,98.8210059 120.249987,98.614497 120.497524,98.5988166 C122.20271,98.491716 122.475148,98.1414201 122.475148,97.0721893 L122.475148,82.0828402 C122.475148,81.2079882 122.229983,80.3636095 120.451278,80.1115385 C120.225975,80.0798817 120.055812,79.8798817 120.055812,79.6461538 L120.055812,79.5772189 C120.055812,79.3195266 120.258288,79.112426 120.516497,79.1050296 L125.983942,78.9618343" id="Fill-7" fill="#000000" sketch:type="MSShapeGroup"></path>
            <path d="M86.8998497,4.28254438 C100.239549,11.8671598 103.344576,28.8757396 94.0632902,46.083432 C85.9061461,61.2100592 68.0947808,67.6704142 54.8232651,59.9692308 C41.548785,52.266568 38.9581002,30.7798817 44.6627056,18.4150888 C52.9455449,0.460650888 72.1611983,-4.1 86.8998497,4.28254438" id="Fill-8" fill="#007E98" sketch:type="MSShapeGroup"></path>
            <path d="M69.7270397,49.0997041 C69.3209019,48.7837278 68.8643674,48.5668639 68.4048685,48.4748521 C68.2483424,48.4446746 68.087666,48.4275148 67.9290647,48.4275148 C67.0613528,48.4275148 66.2108351,48.9038462 65.6543967,49.7047337 C65.1895616,50.3695266 64.9995365,51.1639053 65.1228601,51.9352071 C65.2011232,52.4257396 65.3855157,52.8523669 65.6576576,53.1704142 C65.9632985,53.5298817 66.4310981,53.804142 67.0106597,53.9692308 C67.3462422,54.0618343 67.6901253,54.1112426 68.0334154,54.1112426 L68.0343048,54.1112426 C68.7828434,54.1112426 69.45638,53.8872781 69.9796159,53.4633136 C70.5882296,52.9689349 70.9196618,52.2633136 70.9122505,51.4778107 C70.9054322,50.5612426 70.462238,49.6710059 69.7270397,49.0997041 M86.5903549,17.3325444 C89.2014948,20.1147929 90.0146597,24.3366864 89.5604969,27.7994083 C89.0417077,31.747929 86.6440125,35.4014793 82.6552651,37.8239645 C79.4918372,39.7449704 75.3364843,40.5115385 71.2475365,40.547929 C71.2149269,41.1949704 71.0853779,43.4236686 71.0201587,43.7763314 C70.9241086,44.2961538 70.7417912,44.5766272 70.5185637,44.8677515 C70.0795198,45.4387574 69.3176409,45.8076923 68.5610981,46.0227811 C67.9595992,46.1934911 67.3649186,46.2668639 66.9430689,46.2668639 C66.8716242,46.2668639 66.8019582,46.2627219 66.7337745,46.254142 C66.2890981,46.2038462 65.7955073,45.9955621 65.4901628,45.6556213 C65.1854113,45.3156805 65.0125804,44.8857988 64.972263,44.3988166 L64.9381712,43.9588757 C64.8516075,43.5798817 64.3778789,24.393787 64.4697787,24.7349112 C64.5382589,22.4363905 68.2572359,22.0352071 70.2751775,22.4411243 C72.2972693,22.847929 71.7852985,25.2997041 71.7307516,28.3139053 C71.7307516,28.3139053 71.6347015,32.2775148 71.4482338,36.4656805 C74.0223173,36.3650888 76.0675324,35.6328402 77.9817161,34.6837278 C81.8474363,32.7713018 83.8935407,29.8378698 83.8935407,25.5171598 C83.8935407,21.1961538 79.6786013,16.3576923 71.9035825,16.3576923 C64.1288601,16.3576923 60.7914154,18.3147929 57.026785,21.4230769 C56.1780459,22.1239645 55.5243716,22.8301775 54.9059749,23.2949704 C54.2878747,23.7597633 52.6461294,23.8310651 52.2058998,22.7431953 C51.6755491,21.4316568 52.6665846,19.9695266 53.2488142,19.2621302 C54.1630689,18.1514793 56.4184676,15.914497 58.9178455,14.6147929 C61.7806722,13.1230769 65.2832401,11.5171598 70.1592651,11.3943787 C74.5707516,11.2831361 81.5358664,11.639645 86.5530021,17.2952663" id="Fill-9" fill="#fff" sketch:type="MSShapeGroup"></path>
        </g>
    </g>
</svg>